<svg width="5" height="17" viewBox="0 0 5 17" fill="none" xmlns="http://www.w3.org/2000/svg">
<path d="M4.27143 11.1545H0.785714L0.0571429 0H5L4.27143 11.1545ZM0 15.0591C0 14.4197 0.214286 13.9364 0.642857 13.6091C1.07143 13.2818 1.69524 13.1182 2.51429 13.1182C3.30476 13.1182 3.91429 13.2857 4.34286 13.6206C4.78095 13.9555 5 14.435 5 15.0591C5 15.6604 4.78095 16.1361 4.34286 16.4862C3.90476 16.8287 3.29524 17 2.51429 17C1.71429 17 1.09524 16.8326 0.657143 16.4977C0.219048 16.1551 0 15.6756 0 15.0591Z" fill="#418BF7"/>
</svg>
