<svg width="67" height="132" viewBox="0 0 67 132" fill="none" xmlns="http://www.w3.org/2000/svg">
<circle cx="3" cy="3" r="3" fill="#C4C4C4" fill-opacity="0.4"/>
<circle cx="3" cy="24" r="3" fill="#C4C4C4" fill-opacity="0.4"/>
<circle cx="3" cy="45" r="3" fill="#C4C4C4" fill-opacity="0.4"/>
<circle cx="3" cy="66" r="3" fill="#C4C4C4" fill-opacity="0.4"/>
<circle cx="3" cy="87" r="3" fill="#C4C4C4" fill-opacity="0.4"/>
<circle cx="3" cy="108" r="3" fill="#C4C4C4" fill-opacity="0.4"/>
<circle cx="3" cy="129" r="3" fill="#C4C4C4" fill-opacity="0.4"/>
<circle cx="25" cy="3" r="3" fill="#C4C4C4" fill-opacity="0.4"/>
<circle cx="25" cy="24" r="3" fill="#C4C4C4" fill-opacity="0.4"/>
<circle cx="25" cy="45" r="3" fill="#C4C4C4" fill-opacity="0.4"/>
<circle cx="25" cy="66" r="3" fill="#C4C4C4" fill-opacity="0.4"/>
<circle cx="25" cy="87" r="3" fill="#C4C4C4" fill-opacity="0.4"/>
<circle cx="25" cy="108" r="3" fill="#C4C4C4" fill-opacity="0.4"/>
<circle cx="25" cy="129" r="3" fill="#C4C4C4" fill-opacity="0.4"/>
<circle cx="47" cy="3" r="3" fill="#C4C4C4" fill-opacity="0.4"/>
<circle cx="47" cy="24" r="3" fill="#C4C4C4" fill-opacity="0.4"/>
<circle cx="47" cy="45" r="3" fill="#C4C4C4" fill-opacity="0.4"/>
<circle cx="47" cy="66" r="3" fill="#C4C4C4" fill-opacity="0.4"/>
<circle cx="47" cy="87" r="3" fill="#C4C4C4" fill-opacity="0.4"/>
<circle cx="47" cy="108" r="3" fill="#C4C4C4" fill-opacity="0.4"/>
<circle cx="47" cy="129" r="3" fill="#C4C4C4" fill-opacity="0.4"/>
<circle cx="67" cy="3" r="3" fill="#C4C4C4" fill-opacity="0.4"/>
<circle cx="67" cy="24" r="3" fill="#C4C4C4" fill-opacity="0.4"/>
<circle cx="67" cy="45" r="3" fill="#C4C4C4" fill-opacity="0.4"/>
<circle cx="67" cy="66" r="3" fill="#C4C4C4" fill-opacity="0.4"/>
<circle cx="67" cy="87" r="3" fill="#C4C4C4" fill-opacity="0.4"/>
<circle cx="67" cy="108" r="3" fill="#C4C4C4" fill-opacity="0.4"/>
<circle cx="67" cy="129" r="3" fill="#C4C4C4" fill-opacity="0.4"/>
</svg>
